# xmcd
#
# Track frame offsets:
# 150
# 20088
# 37731
# 55319
# 78118
# 94177
# 114814
# 137108
# 151944
# 170562
# 191026
# 212549
# 233182
# 251414
# 271643
# 292335
#
# Disc length: 4102 seconds
#
#
# Revision: 0
# Processed by: cddbd v1.5.2PL0 Copyright (c) Steve Scherf et al.
# Submitted via: FreeRIP 2.951 
#
DISCID=d4100410
DTITLE=José Augusto - José Augusto - Fantasias
DYEAR=1900
DGENRE=MPB
TTITLE0=Faixa 01 - Fantasias
TTITLE1=Faixa 02 - Sonho Por Sonho
TTITLE2=Faixa 03 - Lua E Flor
TTITLE3=Faixa 04 - A Minha História (La Mia Storia Tra Le Dita)
TTITLE4=Faixa 05 - Indiferença
TTITLE5=Faixa 06 - Evidências (Part. Esp.: Roberta Miranda)
TTITLE6=Faixa 07 - Aguenta Coração
TTITLE7=Faixa 08 - Casinha Branca
TTITLE8=Faixa 09 - Me Esqueci De Viver (Me Olvide De Vivir)
TTITLE9=Faixa 10 - O Sole Mio
TTITLE10=Faixa 11 - Chuvas De Verão
TTITLE11=Faixa 12 - Fui Eu
TTITLE12=Faixa 13 - Eu E Você
TTITLE13=Faixa 14 - Quase Um Sonho (Part. Esp.: Dionne Warwick)
TTITLE14=Faixa 15 - Por Eu Ter Me Machucado
TTITLE15=Faixa 16 - Luzes Da Ribalta (Limelight)
EXTD=pedro.rp@oi.com.br\nNov. 2006
EXTT0=
EXTT1=
EXTT2=
EXTT3=
EXTT4=
EXTT5=
EXTT6=
EXTT7=
EXTT8=
EXTT9=
EXTT10=
EXTT11=
EXTT12=
EXTT13=
EXTT14=
EXTT15=
PLAYORDER=
